<?xml version="1.0" encoding="iso-8859-1"?>
<!-- Uploaded to: SVG Repo, www.svgrepo.com, Generator: SVG Repo Mixer Tools -->
<!DOCTYPE svg PUBLIC "-//W3C//DTD SVG 1.1//EN" "http://www.w3.org/Graphics/SVG/1.1/DTD/svg11.dtd">
<svg fill="#000000" version="1.1" id="Capa_1" xmlns="http://www.w3.org/2000/svg" xmlns:xlink="http://www.w3.org/1999/xlink" 
	 width="800px" height="800px" viewBox="0 0 391.993 391.993"
	 xml:space="preserve">
<g>
	<path d="M362.27,15.372H29.724C13.331,15.372,0,28.709,0,45.102v246.449c0,16.393,13.331,29.729,29.724,29.729h110.932v30.745
		h-20.752c-6.794,0-12.297,5.512-12.297,12.298c0,6.785,5.503,12.298,12.297,12.298H272.09c6.785,0,12.298-5.513,12.298-12.298
		c0-6.786-5.513-12.298-12.298-12.298h-20.753V321.28h110.927c16.387,0,29.729-13.337,29.729-29.729V45.102
		C391.993,28.709,378.656,15.372,362.27,15.372z M226.741,352.025h-61.489V321.28h61.489V352.025z"/>
</g>
</svg>