<?xml version="1.0" encoding="utf-8"?><!-- Uploaded to: SVG Repo, www.svgrepo.com, Generator: SVG Repo Mixer Tools -->
<svg width="800px" height="800px" viewBox="0 0 24 24" fill="none" xmlns="http://www.w3.org/2000/svg">
<path d="M8.00191 9.41621C7.61138 9.02569 7.61138 8.39252 8.00191 8.002C8.39243 7.61147 9.0256 7.61147 9.41612 8.002L12.0057 10.5916L14.5896 8.00771C14.9801 7.61719 15.6133 7.61719 16.0038 8.00771C16.3943 8.39824 16.3943 9.0314 16.0038 9.42193L13.4199 12.0058L16.0039 14.5897C16.3944 14.9803 16.3944 15.6134 16.0039 16.004C15.6133 16.3945 14.9802 16.3945 14.5896 16.004L12.0057 13.42L9.42192 16.0038C9.03139 16.3943 8.39823 16.3943 8.00771 16.0038C7.61718 15.6133 7.61718 14.9801 8.00771 14.5896L10.5915 12.0058L8.00191 9.41621Z" fill="#0F0F0F"/>
</svg>