<?xml version="1.0" encoding="utf-8"?>
<!-- Generator: Adobe Illustrator 16.0.0, SVG Export Plug-In . SVG Version: 6.00 Build 0)  -->
<!DOCTYPE svg PUBLIC "-//W3C//DTD SVG 1.1//EN" "http://www.w3.org/Graphics/SVG/1.1/DTD/svg11.dtd">
<svg version="1.1" id="Layer_1" xmlns="http://www.w3.org/2000/svg" xmlns:xlink="http://www.w3.org/1999/xlink" x="0px" y="0px"
	 width="300px" height="359px" viewBox="0 0 300 359" enable-background="new 0 0 300 359" xml:space="preserve">
<g>
	<path fill="#FFFFFF" d="M279.269,104.545c-1.846-25.537-0.021-50.689,3.691-59.38c3.715-8.69,5.914-16.854,2.515-20.251
		c-3.393-3.396-7.876-0.745-17.998,3.057c-22.669,8.512-42.835,10.279-56.646,8.963c-43.983-4.958-51.367-28.351-60.073-28.351
		c-0.026,0,0.014,0,0,0c-8.706,0-16.08,23.431-60.063,28.39c-13.811,1.316-33.978-0.451-56.647-8.963
		c-10.122-3.801-14.605-6.453-17.999-3.056c-3.398,3.396-1.199,11.561,2.514,20.25c3.714,8.691,5.539,33.844,3.692,59.379
		c-1.845,25.536-15.039,77.97-15.039,120.771c0.363,10.027,4.029,32.732,12.227,44.496c21.059,36.685,66.512,44.297,85.607,53.182
		c31.075,14.46,36.749,28.467,45.717,28.467c0.024,0-0.017,0,0,0c8.97,0,14.633-14.045,45.708-28.506
		c19.095-8.884,64.548-16.496,85.607-53.182c8.197-11.764,11.864-34.468,12.227-44.496
		C294.309,182.515,281.115,130.081,279.269,104.545z"/>
	<g>
		<path fill="#E63241" d="M272.825,102.533c-5.946-36.715,6.898-71.806,6.898-71.806s-36.447,14.889-63.307,12.678
			c-52.304-4.307-57.603-27.237-65.656-27.237c-0.059,0,0.056-0.106,0,0c-0.055-0.106,0.06,0,0,0
			c-8.052,0-13.353,22.93-65.656,27.237C58.247,45.616,21.8,30.727,21.8,30.727s12.845,35.091,6.899,71.806
			c-0.048,18.133-14.521,79.387-14.521,120.076c0.344,9.532,3.829,33.579,11.622,44.766c20.02,34.874,65.483,41.089,82.275,49.809
			c23.793,10.155,42.686,27.69,42.686,27.69l0,0c0,0,18.893-17.535,42.687-27.69c16.792-8.72,62.255-14.935,82.275-49.809
			c7.793-11.187,11.277-35.233,11.622-44.766C287.346,181.92,272.872,120.666,272.825,102.533z"/>
		<g>
			<path fill="#E63241" d="M150.774,353.127h-0.007c-4.598,0-8.2-3.006-13.652-7.557c-6.65-5.551-15.755-13.15-32.753-21.062
				c-4.071-1.894-9.366-3.729-15.497-5.858c-22.81-7.91-54.047-18.743-70.836-47.988c-8.592-12.316-12.102-35.816-12.443-45.249
				c0-27.185,5.327-58.482,9.608-83.629c2.554-15.004,4.76-27.963,5.437-37.319c1.945-26.918-0.285-50.943-3.565-58.621
				c-4.946-11.575-5.635-18.579-2.168-22.045c1.371-1.372,2.987-2.04,4.936-2.04c2.677,0,5.916,1.269,10.396,3.026
				c1.334,0.524,2.793,1.097,4.393,1.698c20.362,7.646,37.048,9.25,47.461,9.25c2.94,0,5.787-0.13,8.459-0.383
				c29.259-3.3,42.148-15.054,49.85-22.078c4.02-3.666,6.924-6.315,10.357-6.32l0,0c0.004,0,0.006,0,0.01,0
				c3.435,0,6.343,2.647,10.371,6.311c7.701,7.013,20.596,18.749,49.884,22.051c2.644,0.251,5.489,0.381,8.432,0.381
				c10.414,0,27.1-1.605,47.46-9.25c1.599-0.601,3.059-1.173,4.393-1.697c4.48-1.757,7.718-3.026,10.396-3.026
				c1.948,0,3.564,0.667,4.936,2.041c3.467,3.465,2.78,10.469-2.167,22.044c-3.281,7.677-5.512,31.703-3.564,58.622
				c0.675,9.356,2.882,22.313,5.435,37.317c4.28,25.148,9.607,56.445,9.607,83.57c-0.342,9.492-3.851,32.993-12.521,45.43
				c-16.709,29.125-47.948,39.959-70.756,47.869c-6.133,2.127-11.428,3.963-15.499,5.857c-17.009,7.915-26.11,15.533-32.76,21.092
				C158.96,350.115,155.366,353.125,150.774,353.127L150.774,353.127z M19.832,25.02c-1.083,0-1.871,0.324-2.63,1.085
				c-1.608,1.607-2.416,6.112,2.86,18.458c3.982,9.318,5.624,35.171,3.819,60.137c-0.688,9.513-2.906,22.543-5.474,37.63
				c-4.261,25.027-9.562,56.173-9.562,83.023c0.406,11.213,4.481,32.871,11.935,43.563c16.256,28.31,46.829,38.913,69.151,46.655
				c6.215,2.154,11.583,4.016,15.804,5.98c17.385,8.091,27.063,16.17,33.468,21.515c5.081,4.239,8.147,6.801,11.563,6.801
				c3.41,0,6.474-2.562,11.547-6.805c6.401-5.358,16.075-13.453,33.475-21.549c4.22-1.964,9.59-3.827,15.804-5.981
				c22.322-7.742,52.896-18.344,69.076-46.533c7.528-10.812,11.603-32.473,12.012-43.745c0-26.788-5.304-57.936-9.562-82.962
				c-2.569-15.088-4.786-28.118-5.476-37.63c-1.803-24.967-0.161-50.82,3.819-60.138c5.276-12.346,4.468-16.851,2.862-18.457
				c-0.762-0.762-1.548-1.086-2.631-1.086c-2.062,0-5.058,1.176-9.204,2.802c-1.349,0.529-2.821,1.106-4.439,1.714
				c-20.816,7.817-37.922,9.458-48.605,9.458c-3.043,0-5.994-0.133-8.768-0.399c-30.366-3.423-43.749-15.604-51.743-22.882
				c-3.486-3.17-6.001-5.461-8.176-5.461c-2.173,0-4.688,2.293-8.168,5.468c-7.995,7.29-21.372,19.49-51.711,22.911
				c-2.803,0.267-5.754,0.401-8.796,0.401c-10.684,0-27.789-1.641-48.607-9.458c-1.615-0.607-3.089-1.185-4.437-1.714
				C24.889,26.196,21.893,25.02,19.832,25.02z M150.764,267.398c-0.9,0-1.631-0.729-1.631-1.63c0-0.902,0.731-1.63,1.631-1.63
				c0.901,0,1.63,0.728,1.63,1.63C152.395,266.67,151.665,267.398,150.764,267.398z"/>
		</g>
	</g>
	<g>
		<path fill="#FFFFFF" d="M66.725,89.093l22.377-13.611c0,0,2.941-1.838,2.935,0.872c-0.011,2.704-0.05,15.786-0.05,15.786
			s-0.723,3.128-1.992,0.131c-1.277-2.994-2.123-5.561-3.832-6.565c-1.705-0.998-2.273-0.287-2.283,1.705
			c-0.003,1.997,0.018,42.302,0.011,44.296c-0.001,1.995,0.413,4.417,1.696,5.707c1.276,1.286,3.052,2.229,0.764,3.646
			c-2.282,1.421-9.508,5.788-9.508,5.788s-3.542,2.155-2.395-1.205c0.601-1.74,1.576-2.7,1.582-5.118
			c0.01-2.428,0.136-44.729,0.141-46.869c0.005-2.138-0.978-4.273-2.701-2.852c-1.317,1.087-3.339,8.119-5.32,17.073
			c-0.469,2.127-2.572,4.132-2.562,1.132c0.01-2.997-0.392-11.823-0.379-15.378C65.217,90.069,65.655,89.751,66.725,89.093z"/>
		<path fill="#FFFFFF" d="M99.821,77.618c0,0,7.089-4.684,8.377-5.389c1.279-0.708,2.139-0.563,1.562,1.425
			c-0.577,1.998-1.055,3.864-1.059,5.285c-0.005,1.425,0.014,14.084,0.014,14.084l11.208-6.783c0,0,0.169-10.399,0.179-12.11
			c0-1.707-1.042-4.229-2.036-5.367c-0.995-1.145-0.995-1.715,0.436-2.708c1.429-1,5.93-3.718,7.988-4.962
			c0.935-0.56,1.956-0.437,1.281,2c-0.433,1.562-0.315,4.079-0.461,5.646c-0.147,1.565-0.046,38.027-0.046,39.455
			c-0.004,1.423,0.279,2.853,1.415,3.989c1.138,1.143,1.285,2.358-0.687,3.556c-1.861,1.135-5.257,3.258-6.781,4.125
			c-0.995,0.563-2.389,0.557-1.663-2.005c0.713-2.56,0.867-4.833,0.877-7.548c0.006-3.564-0.067-13.677-0.034-15.525
			c0.04-2.161,0.554-2.775-1.535-1.507c-1.048,0.639-7.223,4.401-8.797,5.322c-0.991,0.583-1.226,1.038-1.19,1.536
			c0.105,1.279-0.08,19.288-0.08,20.567c-0.004,1.283,0.706,2.282,1.552,2.859c0.859,0.569,1.726,1.697-0.487,2.986
			c-1.946,1.135-6.615,4.531-7.947,5.339c-1.21,0.74-1.934-0.44-1.357-2.008c0.57-1.568,0.923-2.959,1.069-5.947
			c0.153-2.992,0.111-37.464,0.119-39.172c0.004-1.712-1.5-3.444-2.207-4.154C98.812,79.888,98.1,79.318,99.821,77.618z"/>
		<path fill="#FFFFFF" d="M136.7,55.035c5.002-3.002,18.946-11.48,21.982-13.321c1.79-1.089,2.711-1.562,2.705,0.573
			c-0.004,2.141-0.158,5.556-0.162,6.554c-0.006,0.998-1.286,1.851-2.007,0.995c-0.701-0.858-3.697-1.01-5.262-0.446
			c-1.566,0.567-4.995,2.263-5.711,2.837c0.145,1.846-0.01,16.285-0.014,16.999c2.149-0.421,4.942-2.267,8.499-2.822
			c3.571-0.563,9.413-4.244,10.417-5.52c1.001-1.28,2.565-1.562,1.847,1.566c-0.722,3.134-3.73,9.253-10.856,9.658
			c-7.122,0.406-7.283,1.177-8.848,2.397c-1,0.783-1.279,1.701-1.283,2.839c0,1.139,0.023,19.515,0.018,20.371
			c-0.004,0.852,0.926,0.857,2.058,0.292c1.149-0.564,10.569-6.517,14.292-15.485c1.338-3.199,2.285-2.271,2.281-0.704
			c-0.003,1.568-0.45,7.797-0.597,8.687c-0.289,1.852-0.431,2.707-4.43,5.112c-2.908,1.758-18.98,11.484-20.405,12.332
			c-1.431,0.852-2.421-0.142-1.707-1.426c0.716-1.283,0.711-1.568,0.711-2.847c0.004-1.282,0.014-40.228,0.014-42.079
			c0.01-1.85-0.561-3.561-2.268-3.992C136.27,57.175,135.309,55.872,136.7,55.035z"/>
		<path fill="#FFFFFF" d="M29.133,200.771c0.397-5.838,5.183-12.125,12.151-13.207c5.41-0.841,6.687,0.875,9.252,1.453
			c2.562,0.571,5.978,0.581,7.55-0.266c1.57-0.85,3.565-2.412,2.56,1.005c-1.009,3.413-2.74,11.245-1.749,14.524
			c0.985,3.272,1.692,4.565,1.55,6.128c-0.146,1.567-1.709-0.288-2.708-1.149c-0.996-0.854-2.841-2.144-3.839-3.004
			c-0.991-0.852-2.411-2.428-1.265-3.557c1.142-1.135,0.388-6.548-2.83-8.273c-4.263-2.289-11.96-0.607-12.688,5.945
			c-0.812,7.217,8.309,15.124,10.343,16.269c8.151,4.581,14.773,15.72,13.027,27.387c-1.257,8.374-7.888,17.778-18.001,17.47
			c-10.115-0.316-16.366-5.465-15.912-14.574c0.459-9.125,8.719-9.664,10.285-9.097c1.57,0.581,7.812,3.058,6.106,6.433
			c-0.719,1.428-2.704-0.428-2.704-0.428s-5.276,0.26-4.286,4.115c0.985,3.846,4.978,5.336,7.247,5.572
			c4.275,0.438,10.555-4.38,9.582-11.654c-1.044-7.787-8.367-13.556-14.475-19.123C33.266,218.131,28.54,209.746,29.133,200.771z"/>
		<path fill="#FFFFFF" d="M63.187,247.026c0.575-0.999,1.572-3.269,2.298-6.114c0.722-2.852,12.019-66.771,12.595-69.761
			c0.579-2.993,2.005-4.272,2.709-0.708c0.698,3.567,13.079,55.162,14.074,56.874c0.99,1.72,0.066,3.466-1.049,4.148
			c-1.631,0.991-4.597,2.774-6.807,3.951c-2.48,1.317-1.563-2.707-1.415-3.427c0.144-0.712,0.716-2.13,0.572-3.27
			c-0.127-1.141-1.262-3.99-1.835-5.702c-0.562-1.716-1.842-1.576-1.842-1.576s-6.137,3.688-6.99,4.254
			c-0.856,0.563-1.145,0.852-1.281,1.847c-0.156,1-1.026,7.691-1.173,8.975c-0.148,1.273,1.911,2.731,3.051,3.447
			c1.132,0.716,1.274,1.572-0.01,2.278c-1.285,0.708-10.161,6.096-11.538,7.015C62.833,250.397,62.612,248.026,63.187,247.026z
			 M77.371,217.438c0.853-0.423,2.709-1.558,3.858-2.409c1.141-0.846,1.141-2.418,1.141-2.418s-2.346-10.523-2.667-12.254
			c-0.421-2.283-1.277-1.145-1.429,0.424c-0.148,1.562-1.997,12.383-2.177,13.806C75.803,216.865,76.517,217.865,77.371,217.438z"/>
		<path fill="#FFFFFF" d="M96.819,165.8c1.314-0.812,8.426-5.247,9.847-5.817c1.426-0.562,3.134-0.836,1.991,1.86
			c-1.152,2.707-1.582,5.548-1.586,6.976c-0.006,1.422-0.45,47.124-0.45,47.124s0.165,3.008,2.85,0.721
			c4.998-4.264,7.591-12.803,8.021-15.5c0.44-2.701,2.291-5.268,2.287-1.7c-0.017,3.552-0.046,13.815-0.33,14.949
			c-0.289,1.136-0.64,1.675-1.579,2.274c-4.118,2.649-12.824,7.947-18.122,11.053c-0.927,0.553-1.704,0.145-1.699-1.707
			c0.01-1.85,0.459-51.83,0.464-53.393c0-1.572-1.416-3.283-1.99-3.853C95.96,168.218,94.966,166.929,96.819,165.8z"/>
		<path fill="#FFFFFF" d="M115.301,154.488c1.076-0.67,7.136-4.533,8.273-4.956c1.146-0.426,2.288-0.851,1.708,1.286
			c-0.576,2.137-0.723,4.699-0.449,6.268c0.279,1.565,4.784,20.809,5.208,21.952c0.426,1.139,1.138,0.852,1.709-0.995
			c0.579-1.851,4.068-26.339,4.357-27.907c0.294-1.562-0.696-3.85-1.269-4.699c-0.565-0.857-1.415-1.713,0.015-2.853
			c1.425-1.136,7.558-4.391,8.56-5.105c1-0.705,2.564-0.276,1.844,1.433c-0.715,1.708-2.304,8.537-2.738,10.394
			c-0.43,1.845-10.706,56.8-11.137,58.936c-0.437,2.133-1.718,3.551-2.571,0.269c-0.844-3.274-11.256-45.038-11.827-47.322
			c-0.555-2.278-1.694-2.855-2.261-3.564C114.149,156.912,113.019,155.908,115.301,154.488z"/>
		<path fill="#FFFFFF" d="M152.134,170.146c0.176-1.42,2.029-10.675,2.171-12.24c0.145-1.568,1.004-2.701,1.421-0.423
			c0.336,1.736,2.109,10.97,2.109,10.97s-0.004,1.569-1.153,2.422c-1.132,0.852-2.988,1.841-3.843,2.274
			C151.977,173.563,151.842,172.429,152.134,170.146z M140.209,203.166c1.383-0.93,8.683-5.587,9.987-6.246
			c0.575-0.283,1.149-1.562,0.01-2.279c-1.142-0.711-1.845-2.428-1.694-3.705c0.139-1.279,0.872-7.123,1.016-8.118
			c0.147-0.999,0.717-1.706,1.577-2.275c0.847-0.566,6.982-4.252,6.982-4.252s1.148-0.563,1.716,1.143
			c0.559,1.712,1.119,4.709,1.261,5.846c0.145,1.14,0.135,2.42-0.004,3.137c-0.145,0.711-1.224,4.832,1.206,3.414
			c2.43-1.42,7.054-4.102,8.05-4.955c1.004-0.855,1.706-1.033,0.29-2.424c-0.589-0.565-1.392-2.537-2.101-4.393
			c-0.708-1.855-10.685-47.365-11.264-50.342c-0.697-3.563-2.128-2.287-2.706,0.703c-0.58,2.99-12.153,63.208-12.872,66.059
			c-0.726,2.847-2.445,5.972-3.013,6.972C138.076,202.443,138.496,204.289,140.209,203.166z"/>
		<path fill="#FFFFFF" d="M128.129,272.361c0.185-1.423,3.186-17.225,3.339-18.797c0.142-1.562,0.999-2.701,1.419-0.418
			c0.322,1.736,3.657,15.676,3.657,15.676s-0.151,1.992-1.289,2.842c-1.139,0.851-4.995,3.125-5.848,3.548
			C127.411,276.208,127.841,274.636,128.129,272.361z M114.059,309.638c1.386-0.923,11.459-7.231,12.746-7.941
			c1.282-0.708,0.818-1.991-0.324-2.706c-1.135-0.723-2.697-1.865-2.551-3.141c0.147-1.287,1.594-9.537,1.743-10.531
			c0.147-1.001,0.43-1.284,1.286-1.852c0.854-0.567,10.278-6.381,10.278-6.381s0.978,0.396,1.415,2.136
			c0.563,2.284,0.979,4.423,1.124,5.566c0.136,1.131,0.43,3.5,0.287,4.222c-0.146,0.706-0.985,5.167,1.444,3.745
			c2.418-1.419,6.179-3.577,7.178-4.433c1.005-0.856,2.728-2.361,1.155-3.559c-1.044-0.793-2.895-4.178-4.02-9.287
			c-3.711-16.846-11.585-49.049-12.136-51.813c-0.699-3.562-2.124-2.284-2.704,0.702c-0.576,2.986-14.172,72.889-14.898,75.73
			c-0.713,2.851-3.009,6.831-3.584,7.826C111.923,308.922,112.352,310.768,114.059,309.638z"/>
		<path fill="#FFFFFF" d="M167.358,122.837c1.812-1.079,18.98-11.624,20.56-12.474c1.56-0.849,2.408,0.01,2.402,1.435
			c0,1.423,0.684,11.962,0.679,13.104c0,1.136-1.572,2.414-2.14,0.851c-0.564-1.571-1.691-3.995-2.688-4.994
			c-0.992-1.003-2.85-0.722-3.708,0.133c-0.856,0.847-0.572,0.563-0.578,2.132c-0.004,1.566,0.325,42.373,0.315,44.655
			c-0.004,2.28,0.981,5.135,1.683,6.13c0.719,0.998,1.673,1.793-0.325,3.062c-1.995,1.279-6.667,4.038-7.81,4.609
			c-1.138,0.563-2.137,0.561-1.555-1.576c0.567-2.137,0.713-3.702,0.867-5.697c0.145-1.991-0.028-44.083-0.014-45.794
			c0-1.707-0.57-3.56-1.995-2.57c-1.427,0.989-4.292,5.83-5.162,10.385c-0.378,2.003-2.005,2.697-2.14,0.563
			c-0.127-2.135-0.258-8.261-0.104-10.681C165.795,123.689,165.939,123.689,167.358,122.837z"/>
		<path fill="#FFFFFF" d="M194.781,106.397c0.792-0.656,6.996-4.393,8.568-5.242c1.564-0.849,2.114-0.518,1.564,1.715
			c-0.433,1.707-0.442,4.129-0.446,4.842c0,0.71-0.39,47.242-0.39,48.951c-0.01,1.709,0.696,3.42,1.122,3.993
			c0.423,0.571,0.844,2.708-0.296,3.417c-1.145,0.706-8.844,5.105-9.706,5.814c-0.851,0.709-1.993-0.44-1.13-2.002
			c0.86-1.558,1.432-4.414,1.442-5.832c0-1.428,0.101-44.401,0.106-46.823c0.004-2.419-1.559-4.992-2.261-6.417
			C192.647,107.39,193.924,107.107,194.781,106.397z"/>
		<path fill="#FFFFFF" d="M207.388,125.344c-0.202-5.266,0.262-32.134,14.492-36.279c7.097-2.064,11.388,7.515,11.971,11.5
			c1.669,11.49,3.667,31.919-4.819,47.847c-5.143,9.653-16.125,4.14-18.712-4.109C207.837,136.348,207.649,132.035,207.388,125.344z
			 M217.867,144.32c1.712,3.99,4.682,3.52,6.414,0.16c1.056-2.038,2.836-7.683,3.896-17.36c1.608-14.669-0.08-25.397-1.476-28.924
			c-2.041-5.124-5.603-3.609-7.682-0.305c-4.139,6.592-4.109,14.549-4.66,25.638C214.213,126.518,215.43,138.621,217.867,144.32z"/>
		<path fill="#FFFFFF" d="M237.596,80.601c1.486-1.249,2.713-2.126,4.282-2.829c1.566-0.713,2.711-1.993,4.828,2.291
			c2.135,4.28,6.334,13.935,6.808,14.911c1.129,2.365,1.985,2.045,1.995-0.283c0.01-3.984,0.199-22.011,0.204-24.858
			c0.01-2.851-1.262-4.133-1.978-5.417c-0.709-1.286-2.551-2.861-0.695-3.852c1.855-0.995,10.837-5.379,9.644,12.706
			c-0.445,6.818-0.02,55.026-0.02,56.451c-0.004,1.423,0.842,2.708-0.584,2.984c-1.425,0.287-2.416-1.142-3.12-2.714
			c-0.711-1.566-12.177-27.709-12.177-27.709s-1.691-2.575-1.711,1.703c-0.01,4.276-0.289,24.998-0.299,27.276
			c-0.004,2.283,0.991,3.133,1.839,3.996c0.861,0.854,1.563,2.282-0.005,3.278c-1.574,0.991-5.277,3.546-6.708,4.109
			c-1.425,0.565-2.416,0.276-1.697-2.572c0.721-2.843,1.294-5.265,1.439-7.825c0.159-2.566,0.342-40.381,0.346-42.949
			c0.01-2.564-0.651-4.782-1.689-5.273C236.161,83.021,235.735,82.167,237.596,80.601z"/>
		<path fill="#FFFFFF" d="M151.526,222.773c3.171-1.936,7.846-4.716,9.851-5.956c7.891-4.854,18.654,0.081,19.521,10.336
			c1.131,13.403-5.102,18.009-8.611,21.618c-1.971,2.029-2.431,3.131-1.869,4.418c0.566,1.273,8.498,17.393,11.199,20.114
			c2.694,2.711,6.819,3.153,9.108,2.015c2.281-1.125,3.987-0.131,2.417,2.149c-1.576,2.278-7.576,7.955-12.835,4.797
			c-5.26-3.144-7.396-6.423-9.232-10.274c-1.841-3.859-6.083-13.41-6.788-14.979c-0.712-1.572-2.414-3-2.562-0.01
			c-0.153,2.996-0.071,16.302-0.071,17.863c-0.016,1.562,0.271,1.001,0.841,2.006c0.57,1,1.994,1.567-0.439,3.264
			c-2.43,1.701-5.128,3.121-6.555,3.975c-1.425,0.853-2.568,0.275-1.989-1.566c0.574-1.855,0.238-3.144,0.248-5.418
			c0-2.273,0.06-45.649,0.062-47.355c0.01-1.713-0.122-3.126-1.127-3.558C151.704,225.783,147.814,225.043,151.526,222.773z
			 M164.881,248.181c5.426-3.692,7.268-9.206,7.886-15.226c1.267-12.445-7.948-11.412-9.515-10.7
			c-1.569,0.706-2.288,0.702-2.292,2.984c-0.006,2.28,0.365,21.504,0.365,21.504C161.319,248.887,163.113,249.387,164.881,248.181z"
			/>
		<path fill="#FFFFFF" d="M181.53,204.779c1.537-1.048,5.712-3.676,7.133-4.384c1.43-0.712,1.573-0.283,2.569,1.145
			c0.992,1.423,7.509,12.552,7.937,13.272c0.421,0.712,1.847,1.578,2.418-0.562c0.577-2.14,6.053-23.489,6.482-24.769
			c0.434-1.277,1.444-1.836,2.592-2.688c1.141-0.85,3.283-1.848,4.563-2.554c1.289-0.708,1.662-0.2,1.551,0.856
			c-0.218,1.885-0.588,5.832-0.735,7.545c-0.151,1.706-0.071,46.408-0.081,48.121c0,1.711,0.569,3.195,0.976,3.691
			c0.887,1.076,0.808,1.941-0.875,2.894c-2.034,1.149-6.009,3.413-7.319,4.317c-1.86,1.274-2.625-0.288-1.906-2.145
			c0.717-1.851,1.142-1.553,1.44-4.125c0.283-2.557,0.098-28.925,0.098-30.349c0.01-1.422-0.081-3.201-0.947-0.22
			c-0.864,2.994-4.897,18.512-5.325,19.369c-0.433,0.84-1.005,1.984-1.998,0.272c-0.985-1.711-5.812-10.134-6.232-11.129
			c-0.423-1-0.668-0.144-0.668,0.851c-0.006,0.99,0.038,27.85,0.028,29.273c0,1.422,0.563,3.128,1.132,3.561
			c0.567,0.424,2.416,1.857,0.274,3.419c-2.146,1.558-8.112,4.812-9.396,5.513c-1.285,0.708-2.704,0.145-1.416-2.133
			c1.293-2.274,1.81-4.27,1.87-6.548c0.147-5.576-0.299-37.329-0.197-44.497c0.033-2.283-0.746-4.129-1.556-4.567
			C182.091,207.213,179.675,206.068,181.53,204.779z"/>
		<path fill="#FFFFFF" d="M223.056,179.13c1.837-1.278,7.42-4.538,8.849-5.389c1.426-0.851,2.142,0.145,1.562,1.572
			c-0.577,1.42,0.267,6.265,0.834,7.98c0.563,1.706,3.533,7.559,4.106,8.56c0.564,0.994,1.273,2.422,2.704-0.279
			c1.429-2.701,7.465-20.202,8.045-23.049c0.574-2.845-0.406-5.557-1.406-6.703c-0.991-1.138-2.986-2.142-0.833-3.849
			c2.129-1.697,3.602-2.996,5.837-1.263c4.398,3.43,3.948,9.7,2.09,14.248c-1.871,4.556-9.616,23.621-10.618,26.889
			c-1.012,3.273-1.012,4.562-1.163,7.119c-0.149,2.567-0.062,12.898-0.072,16.326c-0.01,3.418,0.459,4.043,1.315,5.332
			c0.845,1.283,0.887,2.668-0.345,3.5c-2.033,1.375-6.453,4.25-8.025,5.1c-1.564,0.851-3.301,0.658-2.099-2.287
			c1.562-3.799,1.577-3.121,1.582-5.828c0.014-2.711-0.058-19.026-0.048-21.315c0.01-2.274-1.967-7.831-3.243-10.114
			c-1.276-2.284-4.537-9.13-5.382-10.848c-0.85-1.709-2.695-2.714-3.832-3.423C221.776,180.693,221.635,180.123,223.056,179.13z"/>
	</g>
</g>
</svg>
